<svg width="52" height="52" viewBox="0 0 52 52" fill="none" xmlns="http://www.w3.org/2000/svg">
<path fill-rule="evenodd" clip-rule="evenodd" d="M21.4487 0.917955C22.8954 0.660014 24.3953 0.5 25.9467 0.5C30.8396 0.5 35.4073 1.88223 39.289 4.26686C40.3125 3.45759 41.6065 2.97461 43.0133 2.97461C46.3242 2.97461 49.0173 5.65662 49.0173 8.97061C49.0173 12.2819 46.3295 14.9613 43.016 14.9613L43.0144 14.9613C39.7062 14.9577 37.012 12.2807 37.012 8.96528C37.012 8.1523 37.174 7.37742 37.4675 6.67094C34.0965 4.65969 30.1603 3.5 25.9467 3.5C24.602 3.5 23.2806 3.63865 21.9753 3.87138C21.1597 4.01679 20.3807 3.47352 20.2353 2.65796C20.0899 1.84239 20.6331 1.06337 21.4487 0.917955ZM40.5309 7.28326C40.2032 7.76286 40.012 8.34216 40.012 8.96528C40.012 10.615 41.3548 11.9592 43.017 11.9613C44.679 11.9607 46.0173 10.6189 46.0173 8.97061C46.0173 7.31926 44.6731 5.97461 43.0133 5.97461C42.1339 5.97461 41.345 6.35014 40.797 6.94797C40.779 6.97875 40.7597 7.00911 40.7393 7.03899C40.6774 7.12942 40.6074 7.21094 40.5309 7.28326Z" fill="#FBAB34"/>
<path fill-rule="evenodd" clip-rule="evenodd" d="M27.0596 16.9568C26.4741 16.3725 25.5259 16.3725 24.9404 16.9568L16.9404 24.9408C16.6584 25.2223 16.5 25.6043 16.5 26.0027C16.5 26.4011 16.6585 26.7831 16.9406 27.0645L24.9406 35.0458C25.5261 35.6299 26.4739 35.6299 27.0594 35.0458L35.0594 27.0645C35.3415 26.7831 35.5 26.4011 35.5 26.0027C35.5 25.6043 35.3416 25.2223 35.0596 24.9408L27.0596 16.9568ZM26 31.865L20.1236 26.0024L26 20.1378L31.8764 26.0024L26 31.865Z" fill="#FBAB34"/>
<path fill-rule="evenodd" clip-rule="evenodd" d="M51.5 26.0026C51.5 30.885 50.1159 35.4421 47.7279 39.3153C49.5977 41.6681 49.4423 45.0963 47.2617 47.2703C46.9271 47.6039 46.5629 47.8899 46.1775 48.1284C45.2594 48.6976 44.1766 49.0267 43.0176 49.0279C40.2854 49.0309 37.9798 47.2108 37.2531 44.7162C36.658 42.683 37.1646 40.3972 38.7729 38.7938C40.1561 37.4148 42.0445 36.849 43.8422 37.0965C44.3596 37.167 44.856 37.3034 45.3226 37.4969C47.3383 34.1332 48.5 30.2064 48.5 26.0026C48.5 24.6607 48.3614 23.3422 48.1287 22.0397C47.983 21.2242 48.526 20.445 49.3416 20.2993C50.1571 20.1536 50.9363 20.6966 51.082 21.5121C51.34 22.9563 51.5 24.4537 51.5 26.0026ZM44.9506 40.7643C44.8626 40.7038 44.783 40.6355 44.7122 40.5611C44.343 40.3094 43.9302 40.1489 43.5053 40.0796C43.3475 40.0542 43.1855 40.0411 43.0203 40.0413L43.0187 40.0413C41.3568 40.0413 40.0147 41.3853 40.0147 43.0373C40.0147 43.3644 40.0672 43.6793 40.1643 43.9739C40.3067 44.4021 40.5489 44.8047 40.891 45.1458C41.9719 46.2234 43.6699 46.3093 44.8493 45.4037C45.562 44.8549 46.02 43.9951 46.02 43.0319C46.02 42.3494 45.7915 41.7202 45.4062 41.2168C45.3264 41.113 45.2389 41.0133 45.1436 40.9183C45.1111 40.8859 45.078 40.8544 45.0444 40.8238C45.0127 40.8052 44.9814 40.7854 44.9506 40.7643Z" fill="#FBAB34"/>
<path fill-rule="evenodd" clip-rule="evenodd" d="M4.27123 12.6888C1.88366 16.5622 0.5 21.121 0.5 26.0028C0.5 27.5516 0.660054 29.049 0.918043 30.4932C1.06373 31.3087 1.84294 31.8517 2.65845 31.706C3.47397 31.5604 4.01697 30.7811 3.87129 29.9656C3.63861 28.6631 3.5 27.3446 3.5 26.0028C3.5 21.7996 4.6613 17.8714 6.67619 14.5079C7.38612 14.8025 8.16505 14.9647 8.98215 14.964C12.2959 14.9635 14.9853 12.2811 14.9853 8.96796C14.9853 5.65513 12.2985 2.97418 8.98321 2.9773C5.66947 2.97773 2.98001 5.66016 2.98001 8.9733C2.98001 10.3774 3.46265 11.668 4.27123 12.6888ZM7.04936 11.2384C7.14145 11.3017 7.22428 11.3734 7.29751 11.4518C7.77684 11.7757 8.35561 11.9646 8.97974 11.964H8.98134C10.6432 11.964 11.9853 10.6199 11.9853 8.96796C11.9853 7.31573 10.6459 5.97552 8.98562 5.9773L8.98401 5.9773C7.32212 5.9773 5.98001 7.32137 5.98001 8.9733C5.98001 9.84274 6.35091 10.6258 6.94429 11.1723C6.97989 11.1927 7.01494 11.2147 7.04936 11.2384Z" fill="#FBAB34"/>
<path fill-rule="evenodd" clip-rule="evenodd" d="M14.5324 45.329C14.826 44.6225 14.988 43.8476 14.988 43.0346C14.988 39.7191 12.2937 37.0421 8.98561 37.0386H8.984C5.67047 37.0386 2.98267 39.7179 2.98267 43.0292C2.98267 46.3432 5.6758 49.0252 8.98667 49.0252C10.3934 49.0252 11.6874 48.5423 12.7108 47.7331C16.5926 50.1177 21.1604 51.5 26.0533 51.5C27.6047 51.5 29.1046 51.34 30.5513 51.0821C31.3669 50.9366 31.9101 50.1576 31.7647 49.342C31.6193 48.5265 30.8403 47.9832 30.0247 48.1286C28.7194 48.3614 27.398 48.5 26.0533 48.5C21.8397 48.5 17.9034 47.3403 14.5324 45.329ZM11.4688 44.717C11.3924 44.7893 11.3225 44.8707 11.2607 44.961C11.2403 44.9908 11.2212 45.021 11.2033 45.0516C10.6552 45.6496 9.86625 46.0252 8.98667 46.0252C7.32686 46.0252 5.98267 44.6806 5.98267 43.0292C5.98267 41.3808 7.32109 40.039 8.98318 40.0386C10.6453 40.0408 11.988 41.3849 11.988 43.0346C11.988 43.6579 11.7966 44.2374 11.4688 44.717Z" fill="#FBAB34"/>
</svg>
