<svg width="16" height="13" viewBox="0 0 16 13" fill="none" xmlns="http://www.w3.org/2000/svg">
<path fill-rule="evenodd" clip-rule="evenodd" d="M1.45152 6.73141C2.16949 5.40372 3.19066 4.16811 4.35277 3.27003C5.51824 2.36935 6.78624 1.83691 8.00749 1.83691C9.22874 1.83691 10.4967 2.36934 11.6622 3.27011C12.8243 4.16831 13.8455 5.40417 14.5635 6.73232C14.5928 6.7869 14.5929 6.85453 14.5636 6.90916C13.8456 8.23696 12.8244 9.47269 11.6622 10.3708C10.4967 11.2715 9.22875 11.804 8.00749 11.804C6.78624 11.804 5.51825 11.2715 4.35279 10.3708C3.19068 9.47258 2.1695 8.23677 1.45153 6.90868C1.42208 6.85397 1.42208 6.78612 1.45152 6.73141ZM1.45152 6.73141C1.45155 6.73135 1.45159 6.73128 1.45162 6.73122L0.925321 6.44727L1.45135 6.73171C1.45141 6.73161 1.45146 6.73151 1.45152 6.73141ZM8.00749 0.640869C6.44196 0.640869 4.92317 1.31764 3.6214 2.32365C2.31636 3.3322 1.1899 4.70065 0.399267 6.16282L0.399001 6.16331C0.178197 6.57258 0.178197 7.0675 0.399001 7.47676L0.399233 7.47719C1.18986 8.93977 2.31632 10.3084 3.62138 11.3171C4.92316 12.3232 6.44196 13 8.00749 13C9.57302 13 11.0918 12.3232 12.3936 11.3172C13.6986 10.3087 14.8251 8.94021 15.6157 7.47805L15.616 7.47755C15.8368 7.06829 15.8368 6.57337 15.616 6.16411L15.6157 6.16368C14.8251 4.7011 13.6987 3.33243 12.3936 2.32377C11.0918 1.31764 9.57303 0.640869 8.00749 0.640869ZM6.71875 5.53168C7.43049 4.81994 8.58446 4.81994 9.2962 5.53168C10.0079 6.24342 10.0079 7.39739 9.2962 8.10913C8.58446 8.82088 7.43049 8.82088 6.71875 8.10913C6.00701 7.39739 6.00701 6.24342 6.71875 5.53168ZM5.91328 4.72621C7.06987 3.56962 8.94508 3.56962 10.1017 4.72621C11.2583 5.8828 11.2583 7.75802 10.1017 8.91461C8.94508 10.0712 7.06987 10.0712 5.91328 8.91461C4.75669 7.75802 4.75669 5.8828 5.91328 4.72621Z" fill="#E0DEEA"/>
</svg>
