<svg width="12" height="10" viewBox="0 0 12 10" fill="none" xmlns="http://www.w3.org/2000/svg">
<path d="M7.13781 0.670067C7.36457 0.443311 7.73221 0.443311 7.95897 0.670067L11.8299 4.54104C11.886 4.59715 11.9283 4.66189 11.9566 4.73099C11.9835 4.79646 11.9988 4.86794 11.9999 4.94285C12 4.94903 12 4.9552 11.9999 4.96137C11.9987 5.03624 11.9833 5.10765 11.9563 5.17306C11.9423 5.20696 11.925 5.23981 11.9043 5.2711C11.8831 5.3033 11.8583 5.33385 11.8299 5.36219L7.95897 9.23316C7.73221 9.45992 7.36457 9.45992 7.13781 9.23316C6.91105 9.0064 6.91105 8.63876 7.13781 8.412L10.0176 5.53226L0.580645 5.53226C0.259964 5.53226 -2.80349e-08 5.27229 0 4.95161C2.80349e-08 4.63093 0.259964 4.37097 0.580646 4.37097L10.0176 4.37097L7.13781 1.49122C6.91105 1.26447 6.91105 0.896823 7.13781 0.670067Z" fill="white"/>
</svg>
